<?xml version="1.0" encoding="UTF-8"?>
<!DOCTYPE svg PUBLIC "-//W3C//DTD SVG 1.1//EN" "http://www.w3.org/Graphics/SVG/1.1/DTD/svg11.dtd">
<svg xmlns="http://www.w3.org/2000/svg" version="1.1" width="512px" height="512px" style="shape-rendering:geometricPrecision; text-rendering:geometricPrecision; image-rendering:optimizeQuality; fill-rule:evenodd; clip-rule:evenodd" xmlns:xlink="http://www.w3.org/1999/xlink">
<g><path style="opacity:0.983" fill="#eb2126" d="M 171.5,25.5 C 174.518,25.3354 177.518,25.502 180.5,26C 205.537,39.184 230.537,52.3507 255.5,65.5C 280.463,52.3507 305.463,39.184 330.5,26C 333.5,25.3333 336.5,25.3333 339.5,26C 365.685,46.6852 389.019,70.1852 409.5,96.5C 358.485,124.675 307.152,152.342 255.5,179.5C 203.848,152.342 152.515,124.675 101.5,96.5C 122.179,70.1552 145.512,46.4886 171.5,25.5 Z"/></g>
<g><path style="opacity:0.992" fill="#eb2126" d="M 447.5,287.5 C 397.932,290.716 355.099,309.049 319,342.5C 304.681,357.805 295.681,375.805 292,396.5C 290.756,412.037 293.089,427.037 299,441.5C 299.69,443.35 300.856,444.684 302.5,445.5C 287.292,458.202 272.792,471.869 259,486.5C 258.51,487.793 258.343,489.127 258.5,490.5C 256.5,490.5 254.5,490.5 252.5,490.5C 252.657,489.127 252.49,487.793 252,486.5C 238.208,471.869 223.708,458.202 208.5,445.5C 210.144,444.684 211.31,443.35 212,441.5C 225.779,404.296 219.113,371.296 192,342.5C 161.774,314.041 125.94,296.541 84.5,290C 77.3414,289.238 70.3414,288.404 63.5,287.5C 55.1721,263.872 52.3387,239.539 55,214.5C 56.9826,188.899 63.4826,164.566 74.5,141.5C 134.708,176.436 195.041,211.102 255.5,245.5C 315.959,211.102 376.292,176.436 436.5,141.5C 456.103,183.756 461.269,227.756 452,273.5C 450.791,278.293 449.291,282.96 447.5,287.5 Z"/></g>
<g><path style="opacity:0.99" fill="#bafe00" d="M 302.5,445.5 C 300.856,444.684 299.69,443.35 299,441.5C 293.089,427.037 290.756,412.037 292,396.5C 295.681,375.805 304.681,357.805 319,342.5C 355.099,309.049 397.932,290.716 447.5,287.5C 459.921,286.927 472.254,288.427 484.5,292C 489.066,293.586 492.733,296.252 495.5,300C 477.932,343.861 450.932,380.527 414.5,410C 393.52,423.867 371.187,433.034 347.5,437.5C 335.099,440.014 322.766,442.847 310.5,446C 307.739,446.722 305.073,446.555 302.5,445.5 Z"/></g>
<g><path style="opacity:0.99" fill="#bafe00" d="M 63.5,287.5 C 70.3414,288.404 77.3414,289.238 84.5,290C 125.94,296.541 161.774,314.041 192,342.5C 219.113,371.296 225.779,404.296 212,441.5C 211.31,443.35 210.144,444.684 208.5,445.5C 205.927,446.555 203.261,446.722 200.5,446C 187.727,442.237 174.894,439.737 162,438.5C 145.331,433.791 128.831,427.624 112.5,420C 96.4632,410.281 81.9632,398.781 69,385.5C 46.3406,360.142 28.5072,331.642 15.5,300C 19.5277,295.529 24.5277,292.529 30.5,291C 41.3308,288.271 52.3308,287.105 63.5,287.5 Z"/></g>
</svg>
